<svg width="19" height="16" viewBox="0 0 19 16" fill="none" xmlns="http://www.w3.org/2000/svg">
<path d="M5.86528 10.6668L5.86819 10.6667H15.3422C15.5802 10.6667 15.7895 10.5087 15.8549 10.2799L17.9883 2.81319C18.0343 2.65222 18.002 2.47917 17.9013 2.34556C17.8005 2.21194 17.6429 2.13333 17.4755 2.13333H4.63528L4.25403 0.417639C4.19972 0.173611 3.98333 0 3.73333 0H0.533333C0.23875 0 0 0.23875 0 0.533333C0 0.827917 0.23875 1.06667 0.533333 1.06667H3.30556C3.37306 1.37069 5.13 9.27708 5.23111 9.73195C4.66431 9.97833 4.26667 10.5435 4.26667 11.2C4.26667 12.0822 4.98444 12.8 5.86667 12.8H15.5378C15.8324 12.8 16.0711 12.5613 16.0711 12.2667C16.0711 11.9721 15.8324 11.7333 15.5378 11.7333H5.86667C5.57264 11.7333 5.33333 11.494 5.33333 11.2C5.33333 10.9064 5.57181 10.6675 5.86528 10.6668ZM16.7684 3.2L14.9398 9.6H6.29444L4.87222 3.2H16.7684Z" fill="#555555"/>
<path d="M5.33337 14.4C5.33337 15.2823 6.05115 16 6.93337 16C7.8156 16 8.53337 15.2823 8.53337 14.4C8.53337 13.5178 7.8156 12.8 6.93337 12.8C6.05115 12.8 5.33337 13.5178 5.33337 14.4ZM6.93337 13.8667C7.2274 13.8667 7.46671 14.106 7.46671 14.4C7.46671 14.6941 7.2274 14.9334 6.93337 14.9334C6.63935 14.9334 6.40004 14.6941 6.40004 14.4C6.40004 14.106 6.63935 13.8667 6.93337 13.8667Z" fill="#555555"/>
<path d="M12.8711 14.4C12.8711 15.2823 13.5889 16 14.4711 16C15.3533 16 16.0711 15.2823 16.0711 14.4C16.0711 13.5178 15.3533 12.8 14.4711 12.8C13.5889 12.8 12.8711 13.5178 12.8711 14.4ZM14.4711 13.8667C14.7651 13.8667 15.0044 14.106 15.0044 14.4C15.0044 14.6941 14.7651 14.9334 14.4711 14.9334C14.1771 14.9334 13.9378 14.6941 13.9378 14.4C13.9378 14.106 14.1771 13.8667 14.4711 13.8667Z" fill="#555555"/>
</svg>
